<svg xmlns="http://www.w3.org/2000/svg" viewBox="0 0 397.28 59.63"><defs><style>.cls-1,.cls-2{fill:#e30016;}.cls-2,.cls-3,.cls-4,.cls-5{fill-rule:evenodd;}.cls-3{fill:#fff;}.cls-4{fill:#1b1918;}</style></defs><title>Asset 4</title><g id="Layer_2" data-name="Layer 2"><g id="Layer_1-2" data-name="Layer 1"><rect class="cls-1" x="0.89" y="51.3" width="396.39" height="8.33"/><path class="cls-2" d="M242.07,7.29H243a10.32,10.32,0,0,1,3.16.28c1.38.64,1.51,2.66,1.51,4a5.21,5.21,0,0,1-1,3.48c-1.29,1-3,.83-4.55.88Zm0,28.21V22.11c3-.14,6.29.27,9.09-1.1,3.67-1.7,4.54-5.87,4.54-9.59,0-2.8-.37-5.37-2.25-7.48-2.25-2.57-6.74-2.84-9.86-2.84H234V35.5ZM259,9.81V35.5h7.29V19.67c.14-2.11,1-2.52,3-2.52a11.68,11.68,0,0,1,2.2.19V9.08c-3,0-4.81,1.88-5.64,4.63h-.09V9.81Zm15.27,18.54c0,5.86,4.32,8,9.54,8,5.55,0,9.18-2.16,9.55-8V17.89c0-5.78-3.13-8.81-9.55-8.81-5.64,0-9.54,2.2-9.54,8.81Zm7.3-11c0-1.65.55-3,2.24-3s2.25,1.34,2.25,3V28.8c-.13,1.47-.73,2.25-2.25,2.25s-2.11-.78-2.24-2.25ZM309,25.91c0,1.65.09,4.45-2.25,4.45-1.79.05-2.25-2.52-2.25-4.72V19.58c0-2.47.41-4.54,2.39-4.54S309,17.75,309,19.26ZM297.21,9.81V44.17h7.29V33.07h.09a6.73,6.73,0,0,0,5.32,3.26c5.32-.19,6.38-5.19,6.38-9.55V17.89c0-4-1.42-8.81-6.24-8.81a6.77,6.77,0,0,0-6,3.85H304V9.81Zm30,9.22V17.34c0-1.79.5-3.44,2.57-3.44a2.5,2.5,0,0,1,2.47,2.61V19Zm12.34,4.82V16.51c0-5.55-4.73-7.48-9.82-7.43-5.64.05-9.81,2.2-9.81,8.81V28.35c0,5.86,4.58,8,9.81,8,6.33-.1,9.91-3.12,9.54-9.73h-7.24c-.14,2.16.13,4.59-2.57,4.45-1.61-.09-2.25-1.28-2.25-2.7v-4.5Zm3.48-14V35.5h7.3V19.67c.13-2.11,1-2.52,3-2.52a11.61,11.61,0,0,1,2.2.19V9.08c-3,0-4.81,1.88-5.64,4.63h-.09V9.81Zm16.79,5.28V30c0,3.9,2.16,5.92,6.1,5.92a33,33,0,0,0,4.68-.41V30.31a8.64,8.64,0,0,0-1.88.1c-1,0-1.61-.32-1.61-1.79V15.09h3.49V9.81h-3.49V2.47h-7.29V9.81H357v5.28Zm19.45-5.28H372l5.09,23.26a23.82,23.82,0,0,1,.83,4.35c0,1-1.43,1.43-2.21,1.29a13.44,13.44,0,0,0-1.42-.18v5.41c.74,0,1.61.23,2.89.23,8,0,7.94-5.41,9.77-12.39l4.63-22H384.4l-2.53,16.61h-.09Z"/><path class="cls-3" d="M166.17,37.43a8,8,0,0,1-4.77-1.85v1h-9V0h9.49V9.18A7.83,7.83,0,0,1,166.35,8c5.41,0,7.34,5.12,7.34,9.91v8.89c0,8.59-4.05,10.53-7.44,10.65h-.08Zm-3-21.24c-.42,0-1.29,0-1.29,3.39v6.06c0,2.1.46,3.62,1.1,3.62a.9.9,0,0,0,.68-.2c.52-.53.52-2.06.52-3V19.27C164.2,17,163.92,16.19,163.19,16.19ZM93.91,37.43c-6.74,0-10.76-3.4-10.76-9.08V17.89C83.15,13.41,85,8.06,94.06,8h.19C101,8,105,11.17,105,16.51V25H92.64v3.4c0,1.53.88,1.58,1.21,1.6H94c.88,0,1.12-.26,1.21-2.62,0-.27,0-.54,0-.81l.07-1h9.32l0,1c.19,3.37-.59,6-2.32,7.88s-4.6,2.95-8.3,3Zm1.58-19.5V16.51s0-1.51-1.38-1.51c-.55,0-1.47,0-1.47,2.34v.59Zm109.9,19.5C202,37.31,198,35.37,198,26.78V17.89C198,13.1,199.88,8,205.29,8a6.81,6.81,0,0,1,4.31,1.46V0h9.5V36.6h-9v-1a7.07,7.07,0,0,1-4.68,1.85Zm3.23-21.29a.84.84,0,0,0-.64.2c-.54.55-.53,2.12-.53,3.06v6.83c0,2.21.27,3,1,3,.48,0,1.14,0,1.14-3.35V19.86c0-2.57-.48-3.72-1-3.72V15ZM182,37.43c-4.66,0-7.79-3.21-7.79-8,0-6.57,3.81-8.67,7.13-9.76.58-.19,1.16-.36,1.72-.52l.43-.13h-8.91l-.05-1a9.11,9.11,0,0,1,2.23-7c1.88-2,4.82-3,8.73-3,7.75,0,10.92,2.59,10.92,8.94V32.65a8,8,0,0,0,.53,2.49l.51,1.46h-9.54l-.27-1.21A7.93,7.93,0,0,1,182,37.43Zm4.84-12.62a10.62,10.62,0,0,0-1.84,1,2.62,2.62,0,0,0-1.25,2.42,1.47,1.47,0,0,0,1.61,1.65c1,0,1.5-.95,1.56-2.83V24.78ZM185.75,15c-1.41,0-1.54.41-1.68,2.7L184,18.89c2.09-.65,3-1.14,3-2.29C187,16.44,186.91,15,185.75,15ZM136.17,37.43c-4.66,0-7.8-3.21-7.8-8,0-6.57,3.81-8.67,7.13-9.76.58-.19,1.16-.36,1.73-.52l.42-.13h-8.9l-.06-1a9.18,9.18,0,0,1,2.23-7c1.89-2,4.82-3,8.74-3,7.75,0,10.91,2.59,10.91,8.94V32.65a8,8,0,0,0,.53,2.49l.52,1.46h-9.55l-.26-1.21A8.1,8.1,0,0,1,136.17,37.43ZM141,24.81a10.49,10.49,0,0,0-1.83,1,2.61,2.61,0,0,0-1.26,2.42,1.47,1.47,0,0,0,1.61,1.65c1,0,1.51-.95,1.56-2.83V24.78ZM139.89,15c-1.41,0-1.55.41-1.69,2.69l-.07,1.16c2.08-.65,3-1.14,3-2.29C141.08,16.44,141.05,15,139.89,15ZM113.66,37.43c-3.39-.12-7.44-2.06-7.44-10.65V17.89c0-4.79,1.93-9.91,7.34-9.91a6.85,6.85,0,0,1,4.31,1.46V0h9.49V36.6h-9v-1a7.12,7.12,0,0,1-4.68,1.87Zm3.23-21.29a.84.84,0,0,0-.64.2c-.54.55-.54,2.12-.54,3.07v6.82c0,2.21.28,3,1,3,.49,0,1.15,0,1.15-3.35V19.86c0-2.57-.49-3.72-1-3.72v0ZM72.42,36.6V17.15c-.08-1-.42-1-.66-1h-.13c-.61,0-.91.19-.91,1V36.6h-9.5V17.27c-.24-1.13-.39-1.13-.64-1.13-.76,0-1,.14-1.06,1.09V36.6H50V8.71h9v1.1A7.71,7.71,0,0,1,63.4,8h.39A6.61,6.61,0,0,1,69,10.51,6.84,6.84,0,0,1,74.3,8c4.48,0,7.61,2.66,7.61,6.47V36.6Zm-33.49,0V17.25c0-1.08-.06-1.11-1-1.11-.67,0-1,.54-1,1.61V36.6H27.47V0H37V9.33A7.5,7.5,0,0,1,41.5,8a6.7,6.7,0,0,1,6.93,6.92V36.6ZM17,36.6l-1.15-6.7H11.4l-1,6.7H0L8,0H19.5l8,36.6Zm-2.27-15-1-7.15L12.6,21.65Z"/><path class="cls-4" d="M9.49,35.5l1-6.7h6.33l1.15,6.7h8.16L18.61,1.1H8.89L1.37,35.5ZM16,22.75H11.32L13.66,7.34h.09ZM35.86,1.1H28.57V35.5h7.29V17.75c0-1.28.51-2.71,2.11-2.71s2.06.74,2.06,2.2V35.5h7.3V14.9A5.59,5.59,0,0,0,41.5,9.08,6.49,6.49,0,0,0,36,11.83h-.09ZM51.13,9.81V35.5h7.3V17.15c.09-1.37.68-2.11,2.15-2.11,1.24,0,1.52,1,1.74,2.11V35.5h7.3V17.15a1.87,1.87,0,0,1,2-2.11C73,15,73.43,16,73.52,17.15V35.5h7.29v-21c0-3.49-3.07-5.37-6.51-5.37A6.1,6.1,0,0,0,69,12.47h-.1a5.46,5.46,0,0,0-5.41-3.39A6.83,6.83,0,0,0,58,12.8h-.1v-3ZM91.54,19V17.34c0-1.79.51-3.44,2.57-3.44a2.51,2.51,0,0,1,2.48,2.61V19Zm12.34,4.82V16.51c0-5.55-4.72-7.48-9.81-7.43-5.65.05-9.82,2.2-9.82,8.81V28.35c0,5.86,4.59,8,9.82,8,6.32-.1,9.9-3.12,9.54-9.73H96.36c-.14,2.16.14,4.59-2.57,4.45-1.61-.09-2.25-1.28-2.25-2.7v-4.5Zm10.73-4.27c0-1.65-.09-4.54,2.25-4.54,1.79,0,2.11,2.62,2.11,4.82v6.05c0,2.48-.27,4.45-2.25,4.45s-2.11-2.61-2.11-4.13ZM126.26,35.5V1.1H119V12.15h-.09a6.21,6.21,0,0,0-5.32-3.07c-4.82,0-6.24,4.77-6.24,8.81v8.89c0,4.36,1.05,9.36,6.38,9.55a6.66,6.66,0,0,0,5.68-3.81h.1v3Zm15.92-8.44c-.05,1.65-.5,3.9-2.66,3.9a2.55,2.55,0,0,1-2.71-2.75,3.7,3.7,0,0,1,1.7-3.31A34.74,34.74,0,0,1,142.18,23ZM143,35.5h7.11a8.8,8.8,0,0,1-.6-2.85V16.92c0-5.64-2.61-7.84-9.81-7.84-5.88,0-10.19,2.43-9.87,8.85h7.3c.14-2.15.14-4,2.8-4a2.4,2.4,0,0,1,2.29,2.66c0,2.75-3.16,3.07-6.33,4.13s-6.38,2.89-6.38,8.71c0,4.09,2.57,6.89,6.7,6.89,2.89,0,4.45-1.11,6.28-3.12Zm22.34-9.59c0,1.65.09,4.45-2.25,4.45-1.79.05-2.25-2.52-2.25-4.72V19.58c0-2.47.41-4.49,2.39-4.49s2.11,2.66,2.11,4.17ZM160.8,1.1h-7.29V35.5h6.79V32.56h.09a6.77,6.77,0,0,0,5.82,3.77c5.32-.19,6.38-5.19,6.38-9.55V17.89c0-4-1.42-8.81-6.24-8.81-2.11,0-4.31.64-5.46,2.84h-.09Zm27.25,26c-.05,1.65-.51,3.9-2.66,3.9a2.54,2.54,0,0,1-2.71-2.75,3.72,3.72,0,0,1,1.69-3.31A35,35,0,0,1,188.05,23Zm.77,8.44h7.11a8.79,8.79,0,0,1-.59-2.85V16.92c0-5.64-2.62-7.84-9.82-7.84-5.87,0-10.18,2.43-9.86,8.85H183c.14-2.15.14-4,2.8-4a2.4,2.4,0,0,1,2.3,2.66c0,2.75-3.17,3.07-6.34,4.13s-6.37,2.89-6.37,8.71c0,4.09,2.57,6.89,6.69,6.89,2.9,0,4.45-1.11,6.29-3.12Zm17.53-15.92c0-1.65-.1-4.54,2.24-4.54,1.79,0,2.11,2.62,2.11,4.82v6.05c0,2.48-.27,4.45-2.24,4.45s-2.11-2.61-2.11-4.13ZM218,35.5V1.1h-7.3V12.15h-.09a6.19,6.19,0,0,0-5.32-3.07c-4.81,0-6.24,4.77-6.24,8.81v8.89c0,4.36,1.06,9.36,6.38,9.55a6.67,6.67,0,0,0,5.69-3.81h.09v3Z"/><path class="cls-5" d="M392.27,8.83V7h-.65V6.67h1.72V7h-.64v1.8Zm1.35,0V6.67h.66l.39,1.47.39-1.47h.65V8.83h-.4V7.13l-.43,1.7h-.42L394,7.13v1.7Z"/></g></g></svg>