<svg xmlns="http://www.w3.org/2000/svg" viewBox="0 0 396.39 58.53"><defs><style>.cls-1,.cls-2{fill:#e30016;}.cls-2,.cls-3,.cls-4{fill-rule:evenodd;}.cls-3{fill:#fff;}</style></defs><title>Asset 2</title><g id="Layer_2" data-name="Layer 2"><g id="Layer_1-2" data-name="Layer 1"><rect class="cls-1" y="50.2" width="396.39" height="8.33"/><path class="cls-2" d="M241.18,6.19h.87a10.35,10.35,0,0,1,3.17.28c1.37.64,1.51,2.66,1.51,4a5.17,5.17,0,0,1-1,3.48c-1.28,1-3,.83-4.54.88Zm0,28.21V21c3-.14,6.28.27,9.08-1.1,3.67-1.7,4.54-5.87,4.54-9.59,0-2.8-.36-5.37-2.25-7.48C250.31.27,245.81,0,242.69,0h-9.58V34.4ZM258.11,8.71V34.4h7.29V18.57c.13-2.11,1-2.52,3-2.52a11.75,11.75,0,0,1,2.2.19V8c-3,0-4.82,1.88-5.65,4.63h-.09V8.71Zm15.27,18.54c0,5.86,4.31,8,9.54,8,5.55,0,9.17-2.16,9.54-8V16.79c0-5.78-3.12-8.81-9.54-8.81-5.64,0-9.54,2.2-9.54,8.81Zm7.29-11c0-1.65.55-3,2.25-3s2.25,1.34,2.25,3V27.7c-.14,1.47-.74,2.25-2.25,2.25s-2.11-.78-2.25-2.25Zm27.43,8.57c0,1.65.09,4.45-2.25,4.45-1.79,0-2.24-2.52-2.24-4.72V18.48c0-2.47.41-4.54,2.38-4.54s2.11,2.71,2.11,4.22ZM296.31,8.71V43.07h7.3V32h.09A6.71,6.71,0,0,0,309,35.23c5.32-.19,6.37-5.19,6.37-9.55V16.79c0-4-1.42-8.81-6.23-8.81a6.77,6.77,0,0,0-6,3.85h-.09V8.71Zm30.05,9.22V16.24c0-1.79.5-3.44,2.56-3.44a2.51,2.51,0,0,1,2.48,2.61v2.52Zm12.33,4.82V15.41c0-5.55-4.72-7.48-9.81-7.43-5.65,0-9.82,2.2-9.82,8.81V27.25c0,5.86,4.59,8,9.82,8,6.33-.1,9.91-3.12,9.54-9.73h-7.25c-.13,2.16.14,4.59-2.57,4.45-1.6-.09-2.24-1.28-2.24-2.7v-4.5Zm3.49-14V34.4h7.29V18.57c.14-2.11,1-2.52,3-2.52a11.75,11.75,0,0,1,2.2.19V8c-3,0-4.82,1.88-5.64,4.63H349V8.71ZM359,14V28.85c0,3.9,2.16,5.92,6.11,5.92a33.21,33.21,0,0,0,4.68-.41V29.21a8.69,8.69,0,0,0-1.89.1c-1,0-1.6-.32-1.6-1.79V14h3.49V8.71h-3.49V1.38H359V8.71h-2.88V14Zm19.45-5.28h-7.34L376.16,32a23.82,23.82,0,0,1,.83,4.35c0,1-1.42,1.43-2.2,1.29a13.78,13.78,0,0,0-1.42-.18v5.41c.73,0,1.6.23,2.89.23,8,0,7.93-5.41,9.77-12.39l4.63-22H383.5L381,25.32h-.09Z"/><path class="cls-3" d="M8.59,34.4l1-6.7h6.34L17,34.4h8.16L17.72,0H8L.47,34.4ZM15.1,21.65H10.43L12.76,6.24h.1ZM35,0H27.67V34.4H35V16.65c0-1.28.51-2.71,2.11-2.71s2.07.74,2.07,2.2V34.4h7.29V13.8A5.58,5.58,0,0,0,40.61,8a6.47,6.47,0,0,0-5.55,2.75H35ZM50.24,8.71V34.4h7.29V16.05c.09-1.37.69-2.11,2.16-2.11,1.24,0,1.51,1,1.74,2.11V34.4h7.29V16.05a1.87,1.87,0,0,1,2-2.11c1.38-.09,1.84.92,1.93,2.11V34.4h7.29v-21C79.91,9.86,76.84,8,73.4,8a6.11,6.11,0,0,0-5.32,3.4H68A5.46,5.46,0,0,0,62.58,8a6.83,6.83,0,0,0-5.46,3.72H57v-3Zm40.41,9.22V16.24c0-1.79.5-3.44,2.56-3.44a2.51,2.51,0,0,1,2.48,2.61v2.52ZM103,22.75V15.41c0-5.55-4.72-7.48-9.81-7.43-5.64,0-9.82,2.2-9.82,8.81V27.25c0,5.86,4.59,8,9.82,8,6.33-.1,9.91-3.12,9.54-9.73H95.46c-.13,2.16.14,4.59-2.57,4.45-1.6-.09-2.24-1.28-2.24-2.7v-4.5Zm10.74-4.27c0-1.65-.09-4.54,2.24-4.54,1.79,0,2.11,2.62,2.11,4.82v6c0,2.48-.27,4.45-2.24,4.45s-2.11-2.61-2.11-4.13ZM125.37,34.4V0h-7.3V11.05H118A6.19,6.19,0,0,0,112.66,8c-4.81,0-6.23,4.77-6.23,8.81v8.89c0,4.36,1,9.36,6.37,9.55a6.66,6.66,0,0,0,5.69-3.81h.09v3ZM141.28,26c0,1.65-.5,3.9-2.66,3.9a2.54,2.54,0,0,1-2.7-2.75,3.72,3.72,0,0,1,1.69-3.31,35.76,35.76,0,0,1,3.67-1.88Zm.78,8.44h7.11a8.79,8.79,0,0,1-.59-2.85V15.82c0-5.64-2.62-7.84-9.82-7.84-5.87,0-10.18,2.43-9.86,8.85h7.29c.14-2.15.14-4,2.8-4a2.39,2.39,0,0,1,2.29,2.66c0,2.75-3.16,3.07-6.33,4.13s-6.37,2.89-6.37,8.71c0,4.09,2.57,6.89,6.7,6.89,2.88,0,4.45-1.1,6.28-3.12Zm22.34-9.59c0,1.65.09,4.45-2.25,4.45-1.79,0-2.24-2.52-2.24-4.72V18.48c0-2.47.41-4.49,2.38-4.49s2.11,2.66,2.11,4.17ZM159.91,0h-7.3V34.4h6.79V31.46h.09a6.79,6.79,0,0,0,5.83,3.77c5.32-.19,6.37-5.19,6.37-9.55V16.79c0-4-1.42-8.81-6.23-8.81-2.11,0-4.32.64-5.46,2.84h-.09Zm27.24,26c0,1.65-.51,3.9-2.66,3.9a2.54,2.54,0,0,1-2.7-2.75,3.7,3.7,0,0,1,1.69-3.31,34.74,34.74,0,0,1,3.67-1.88Zm.78,8.44H195a8.8,8.8,0,0,1-.6-2.85V15.82c0-5.64-2.61-7.84-9.81-7.84-5.87,0-10.18,2.43-9.87,8.85h7.3c.13-2.15.13-4,2.8-4a2.4,2.4,0,0,1,2.29,2.66c0,2.75-3.17,3.07-6.33,4.13s-6.37,2.89-6.37,8.71c0,4.09,2.56,6.89,6.69,6.89,2.89,0,4.45-1.1,6.29-3.12Zm17.52-15.92c0-1.65-.09-4.54,2.25-4.54,1.79,0,2.11,2.62,2.11,4.82v6c0,2.48-.27,4.45-2.25,4.45s-2.11-2.61-2.11-4.13ZM217.1,34.4V0h-7.29V11.05h-.09A6.21,6.21,0,0,0,204.39,8c-4.81,0-6.23,4.77-6.23,8.81v8.89c0,4.36,1.05,9.36,6.37,9.55a6.66,6.66,0,0,0,5.69-3.81h.09v3Z"/><path class="cls-4" d="M391.37,7.73V5.93h-.64V5.57h1.72v.36h-.64v1.8Zm1.36,0V5.57h.65l.4,1.47.38-1.47h.66V7.73h-.41V6L394,7.73h-.42L393.13,6v1.7Z"/></g></g></svg>